<svg width="27" height="27" viewBox="0 0 27 27" fill="none" xmlns="http://www.w3.org/2000/svg">
<path d="M11.25 22.5H15.75V21.375H11.25V22.5ZM7.875 25.875C7.25625 25.875 6.72675 25.6549 6.2865 25.2146C5.8455 24.7736 5.625 24.2437 5.625 23.625V3.375C5.625 2.75625 5.8455 2.22637 6.2865 1.78537C6.72675 1.34513 7.25625 1.125 7.875 1.125H19.125C19.7437 1.125 20.2736 1.34513 20.7146 1.78537C21.1549 2.22637 21.375 2.75625 21.375 3.375V23.625C21.375 24.2437 21.1549 24.7736 20.7146 25.2146C20.2736 25.6549 19.7437 25.875 19.125 25.875H7.875ZM7.875 20.25V23.625H19.125V20.25H7.875ZM7.875 18H19.125V6.75H7.875V18ZM7.875 4.5H19.125V3.375H7.875V4.5Z" fill="black"/>
</svg>
