<svg width="27" height="27" viewBox="0 0 27 27" fill="none" xmlns="http://www.w3.org/2000/svg">
<path d="M4.5 22.5C3.88125 22.5 3.35138 22.2795 2.91038 21.8385C2.46938 21.3975 2.24925 20.868 2.25 20.25V6.75C2.25 6.13125 2.4705 5.60138 2.9115 5.16038C3.3525 4.71938 3.882 4.49925 4.5 4.5H22.5C23.1188 4.5 23.6486 4.7205 24.0896 5.1615C24.5306 5.6025 24.7508 6.132 24.75 6.75V20.25C24.75 20.8688 24.5295 21.3986 24.0885 21.8396C23.6475 22.2806 23.118 22.5008 22.5 22.5H4.5ZM13.5 14.625L22.5 9V6.75L13.5 12.375L4.5 6.75V9L13.5 14.625Z" fill="black"/>
</svg>
